<svg width="42" height="40" viewBox="0 0 42 40" fill="none" xmlns="http://www.w3.org/2000/svg">
<path d="M29.2199 24.13C29.2199 25.38 28.857 26.387 28.132 27.072C27.405 27.758 26.398 28.122 25.188 28.122H16.962C15.752 28.122 14.744 27.758 14.018 27.072C13.293 26.347 12.928 25.339 12.928 24.089V15.822C12.928 14.612 16.192 10.702 16.917 9.976C13.412 9.978 11.075 12.316 11.075 15.822V24.088C11.075 25.822 11.639 27.315 12.768 28.403C13.857 29.451 15.308 29.976 16.962 29.976H25.188C26.921 29.976 28.3729 29.411 29.4209 28.403C30.5099 27.355 31.075 25.863 31.075 24.129V15.822C31.075 14.129 30.51 12.677 29.462 11.629C28.414 10.54 26.92 9.976 25.228 9.976H16.92L14.018 12.88C14.704 12.194 15.752 11.831 16.962 11.831H25.268C26.478 11.831 27.486 12.194 28.212 12.921C28.898 13.646 29.2999 14.654 29.2999 15.823V24.13H29.2199ZM26.357 15.943C26.5133 15.9476 26.6689 15.9207 26.8147 15.8641C26.9605 15.8074 27.0934 15.7221 27.2056 15.6131C27.3178 15.5042 27.4069 15.3738 27.4679 15.2297C27.5288 15.0857 27.5601 14.9309 27.5601 14.7745C27.5601 14.6181 27.5288 14.4633 27.4679 14.3193C27.4069 14.1752 27.3178 14.0448 27.2056 13.9359C27.0934 13.8269 26.9605 13.7416 26.8147 13.6849C26.6689 13.6283 26.5133 13.6014 26.357 13.606C26.053 13.6149 25.7644 13.7419 25.5525 13.9601C25.3407 14.1782 25.2221 14.4704 25.2221 14.7745C25.2221 15.0786 25.3407 15.3708 25.5525 15.5889C25.7644 15.8071 26.053 15.9341 26.357 15.943V15.943ZM21.075 23.283C20.1991 23.2791 19.3602 22.9294 18.7409 22.31C18.1216 21.6907 17.7719 20.8519 17.768 19.976C17.7719 19.1001 18.1216 18.2613 18.7409 17.642C19.3602 17.0226 20.1991 16.6729 21.075 16.669C21.9508 16.6729 22.7897 17.0226 23.409 17.642C24.0283 18.2613 24.378 19.1001 24.382 19.976C24.3777 20.8517 24.0279 21.6903 23.4086 22.3094C22.7893 22.9285 21.9506 23.2781 21.075 23.282V23.283ZM21.075 14.815C18.253 14.815 15.914 17.113 15.914 19.976C15.9121 20.6543 16.0443 21.3262 16.303 21.9532C16.5618 22.5802 16.9418 23.1499 17.4215 23.6295C17.9011 24.1091 18.4707 24.4892 19.0977 24.7479C19.7247 25.0066 20.3967 25.1388 21.075 25.137C23.938 25.137 26.235 22.798 26.235 19.977C26.235 17.153 23.897 14.815 21.075 14.815V14.815Z" fill="black"/>
</svg>
